<svg aria-hidden="true" style="position: absolute; width: 0; height: 0; overflow: hidden;" version="1.1" xmlns="http://www.w3.org/2000/svg" xmlns:xlink="http://www.w3.org/1999/xlink">
<defs>
<symbol id="icon-logo" viewBox="0 0 32 32">
<path d="M8 27.771c-1.829 0-3.2-1.371-3.2-3.086v-9.714c0-0.457-0.343-0.8-0.457-0.914-1.371-1.143-2.171-2.857-2.286-4.8 0 0 0 0 0-0.114v-5.829c0-0.686 0.457-1.143 1.143-1.143s1.143 0.457 1.143 1.143v5.829c0 1.257 0.571 2.4 1.486 3.2 0.8 0.686 1.371 1.714 1.371 2.629v9.714c0 0.457 0.457 0.8 0.914 0.8s0.914-0.343 0.914-0.8v-9.714c0-1.029 0.457-1.943 1.371-2.629 0.914-0.8 1.486-1.943 1.486-3.2v-5.829c0-0.686 0.457-1.143 1.143-1.143s1.143 0.457 1.143 1.143v5.829c0 1.943-0.8 3.771-2.286 4.914-0.229 0.114-0.457 0.457-0.457 0.914v9.714c-0.229 1.714-1.6 3.086-3.429 3.086z"></path>
<path d="M8 10.857c-0.686 0-1.143-0.457-1.143-1.143v-6.514c0-0.686 0.457-1.143 1.143-1.143s1.143 0.457 1.143 1.143v6.514c0 0.686-0.457 1.143-1.143 1.143z"></path>
<path d="M24.571 27.771c-1.714 0-3.2-1.371-3.2-3.086v-5.257c-1.714-0.914-2.743-2.514-2.743-4.457v-7.771c0-2.743 2.4-5.029 5.257-5.029h1.371c1.371 0 2.514 1.143 2.514 2.4v20.114c0 1.714-1.371 3.086-3.2 3.086zM23.886 4.457c-1.6 0-2.971 1.257-2.971 2.743v7.771c0 1.143 0.8 2.171 1.943 2.629 0.457 0.114 0.8 0.571 0.8 1.029v6.057c0 0.457 0.457 0.8 0.914 0.8s0.914-0.343 0.914-0.8v-20.114c0-0.114-0.114-0.114-0.229-0.114h-1.371z"></path>
</symbol>
<symbol id="icon-user" viewBox="0 0 32 32">
<path d="M26.24 28.8c-0.768 0-1.28-0.512-1.28-1.28 0-1.664 0-2.432-0.128-3.072-0.384-1.28-1.28-2.176-2.56-2.56-0.64-0.128-1.408-0.128-3.072-0.128h-6.4c-1.664 0-2.432 0-3.072 0.128-1.28 0.384-2.176 1.28-2.56 2.56-0.128 0.64-0.128 1.408-0.128 3.072 0 0.768-0.512 1.28-1.28 1.28s-1.28-0.512-1.28-1.28c0-1.92 0-2.816 0.256-3.84 0.64-2.048 2.176-3.584 4.224-4.224 1.024-0.256 1.92-0.256 3.84-0.256h6.4c1.92 0 2.816 0 3.84 0.256 2.048 0.64 3.584 2.176 4.224 4.224 0.256 0.896 0.256 1.92 0.256 3.84 0 0.768-0.512 1.28-1.28 1.28zM16 17.28c-3.84 0-7.040-3.2-7.040-7.040s3.2-7.040 7.040-7.040c3.84 0 7.040 3.2 7.040 7.040s-3.2 7.040-7.040 7.040zM16 5.76c-2.432 0-4.48 2.048-4.48 4.48s2.048 4.48 4.48 4.48 4.48-2.048 4.48-4.48-2.048-4.48-4.48-4.48z"></path>
</symbol>
<symbol id="icon-lock" viewBox="0 0 32 32">
<path d="M21.376 28.8h-10.752c-2.304 0-3.584 0-4.608-0.512s-1.792-1.28-2.176-2.176c-0.64-1.152-0.64-2.432-0.64-4.736v-0.512c0-2.304 0-3.584 0.512-4.608s1.28-1.792 2.176-2.176c0.64-0.384 1.408-0.512 2.304-0.512v-2.56c0-4.224 3.456-7.68 7.68-7.68s7.68 3.456 7.68 7.68v2.56c1.024 0 1.664 0.128 2.304 0.512 1.024 0.512 1.792 1.28 2.176 2.176 0.512 1.152 0.512 2.304 0.512 4.608v0.512c0 2.304 0 3.584-0.512 4.608s-1.28 1.792-2.176 2.176c-0.896 0.64-2.176 0.64-4.48 0.64zM10.624 16c-1.92 0-2.944 0-3.456 0.256s-0.896 0.64-1.152 1.152c-0.256 0.512-0.256 1.536-0.256 3.456v0.512c0 1.92 0 2.944 0.256 3.456s0.64 0.896 1.152 1.152c0.512 0.256 1.536 0.256 3.456 0.256h10.752c1.92 0 2.944 0 3.456-0.256s0.896-0.64 1.152-1.152c0.256-0.512 0.256-1.536 0.256-3.456v-0.512c0-1.92 0-2.944-0.256-3.456s-0.64-0.896-1.152-1.152c-0.512-0.256-1.536-0.256-3.456-0.256h-10.752zM10.88 13.44h10.24v-2.56c0-2.816-2.304-5.12-5.12-5.12s-5.12 2.304-5.12 5.12v2.56z"></path>
</symbol>
<symbol id="icon-mail" viewBox="0 0 32 32">
<path d="M22.656 27.52h-13.312c-2.304 0-3.584 0-4.608-0.512s-1.792-1.28-2.176-2.176c-0.64-1.152-0.64-2.432-0.64-4.736v-8.192c0-0.768 0-1.536 0-2.048 0-0.256 0-0.384 0-0.64 0.128-0.768 0.256-1.408 0.512-1.92 0.512-1.024 1.28-1.792 2.176-2.176 1.152-0.64 2.432-0.64 4.736-0.64h13.312c2.304 0 3.584 0 4.608 0.512s1.792 1.28 2.176 2.176c0.256 0.512 0.384 1.152 0.512 1.92 0.128 0.384 0.128 0.512 0.128 0.768 0 0.64 0 1.28 0 2.048v8.192c0 2.304 0 3.584-0.512 4.608s-1.28 1.792-2.176 2.176c-1.152 0.64-2.432 0.64-4.736 0.64zM4.48 12.032v8.064c0 1.92 0 2.944 0.256 3.456s0.64 0.896 1.152 1.152c0.512 0.256 1.536 0.256 3.456 0.256h13.312c1.92 0 2.944 0 3.456-0.256s0.896-0.64 1.152-1.152c0.256-0.512 0.256-1.536 0.256-3.456v-8.064l-8.448 5.888c-0.896 0.64-1.408 1.024-2.176 1.152-0.64 0.128-1.28 0.128-1.792 0-0.64-0.128-1.152-0.512-2.176-1.152l-8.448-5.888zM4.608 8.96l9.856 6.912c0.64 0.512 1.024 0.768 1.28 0.768s0.384 0 0.64 0c0.256 0 0.64-0.384 1.28-0.768l9.728-6.912c0-0.256-0.128-0.384-0.128-0.512-0.256-0.512-0.64-0.896-1.152-1.152s-1.536-0.256-3.456-0.256h-13.312c-1.92 0-2.944 0-3.456 0.256s-0.896 0.64-1.152 1.152c0 0.128-0.128 0.384-0.128 0.512z"></path>
</symbol>
<symbol id="icon-arrow-right" viewBox="0 0 32 32">
<path d="M22.4 17.179h-16.842c-0.674 0-1.011-0.505-1.011-1.179s0.505-1.011 1.011-1.011h16.842c0.674 0 1.179 0.505 1.179 1.011s-0.674 1.179-1.179 1.179z"></path>
<path d="M16 25.937c-0.337 0-0.505-0.168-0.842-0.337-0.505-0.505-0.505-1.179 0-1.516l8.084-8.084-8.084-8.084c-0.337-0.337-0.337-1.179 0-1.516s1.179-0.505 1.516 0l8.926 8.758c0.505 0.505 0.505 1.179 0 1.516l-8.926 8.926c-0.168 0.168-0.337 0.337-0.674 0.337z"></path>
</symbol>
<symbol id="icon-chevron-down" viewBox="0 0 32 32">
<path d="M16 21.6c-0.48 0-0.8-0.16-1.12-0.48l-8-8c-0.64-0.64-0.64-1.6 0-2.24s1.6-0.64 2.24 0l6.88 6.88 6.88-6.88c0.64-0.64 1.6-0.64 2.24 0s0.64 1.6 0 2.24l-8 8c-0.32 0.32-0.64 0.48-1.12 0.48z"></path>
</symbol>
<symbol id="icon-chevron-up" viewBox="0 0 32 32">
<path d="M24 21.6c-0.48 0-0.8-0.16-1.12-0.48l-6.88-6.88-6.88 6.88c-0.64 0.64-1.6 0.64-2.24 0s-0.64-1.6 0-2.24l8-8c0.64-0.64 1.6-0.64 2.24 0l8 8c0.64 0.64 0.64 1.6 0 2.24-0.32 0.32-0.64 0.48-1.12 0.48z"></path>
</symbol>
<symbol id="icon-previous" viewBox="0 0 32 32">
<path d="M23.775 0.842c0.24 0.265 0.431 0.58 0.561 0.927s0.197 0.718 0.197 1.094c0 0.375-0.067 0.747-0.197 1.094s-0.321 0.662-0.561 0.927l-10.056 11.12 10.056 11.12c0.485 0.536 0.757 1.263 0.757 2.020s-0.272 1.485-0.757 2.020c-0.485 0.536-1.142 0.837-1.827 0.837s-1.343-0.301-1.827-0.837l-11.896-13.154c-0.24-0.265-0.431-0.58-0.561-0.927s-0.197-0.718-0.197-1.094c0-0.375 0.067-0.747 0.197-1.094s0.321-0.662 0.561-0.927l11.896-13.154c0.985-1.089 2.644-1.089 3.654 0.029z"></path>
</symbol>
<symbol id="icon-next" viewBox="0 0 32 32">
<path d="M8.225 0.842c-0.24 0.265-0.431 0.58-0.561 0.927s-0.197 0.718-0.197 1.094c0 0.375 0.067 0.747 0.197 1.094s0.321 0.662 0.561 0.927l10.056 11.12-10.056 11.12c-0.485 0.536-0.757 1.263-0.757 2.020s0.272 1.485 0.757 2.020c0.485 0.536 1.142 0.837 1.827 0.837s1.343-0.301 1.827-0.837l11.896-13.154c0.24-0.265 0.431-0.58 0.561-0.927s0.197-0.718 0.197-1.094c0-0.375-0.067-0.747-0.197-1.094s-0.321-0.662-0.561-0.927l-11.896-13.154c-0.985-1.089-2.644-1.089-3.654 0.029z"></path>
</symbol>
<symbol id="icon-pick" viewBox="0 0 32 32">
<path d="M26.151 1.405c0.992-1.463 2.981-1.845 4.444-0.853s1.845 2.982 0.853 4.444l-17.356 25.599c-1.269 1.872-4.028 1.872-5.297 0l-8.244-12.16c-0.992-1.463-0.61-3.453 0.853-4.444s3.453-0.61 4.444 0.853l5.595 8.253 14.707-21.693z"></path>
</symbol>
<symbol id="icon-plus" viewBox="0 0 32 32">
<path d="M16 27.022c-1.067 0-1.778-0.711-1.778-1.778v-18.489c0-1.067 0.711-1.778 1.778-1.778s1.778 0.711 1.778 1.778v18.667c0 0.889-0.711 1.6-1.778 1.6z"></path>
<path d="M25.244 17.778h-18.489c-1.067 0-1.778-0.711-1.778-1.778s0.711-1.778 1.778-1.778h18.667c1.067 0 1.778 0.711 1.778 1.778s-0.889 1.778-1.956 1.778z"></path>
</symbol>
<symbol id="icon-minus" viewBox="0 0 32 32">
<path d="M27 17.6h-22c-0.8 0-1.4-0.8-1.4-1.6s0.6-1.6 1.6-1.6h22c0.8 0 1.6 0.6 1.6 1.6s-1 1.6-1.8 1.6z"></path>
</symbol>
<symbol id="icon-cross" viewBox="0 0 32 32">
<path d="M7.467 25.752c-0.305 0-0.61-0.152-0.762-0.305-0.457-0.457-0.457-1.219 0-1.676l17.067-17.219c0.457-0.457 1.219-0.457 1.676 0s0.457 1.219 0 1.676l-17.219 17.219c-0.152 0.152-0.457 0.305-0.762 0.305z"></path>
<path d="M24.533 25.752c-0.305 0-0.61-0.152-0.762-0.305l-17.219-17.219c-0.457-0.457-0.457-1.219 0-1.676s1.219-0.457 1.676 0l17.067 17.067c0.457 0.457 0.457 1.219 0 1.676-0.152 0.305-0.457 0.457-0.762 0.457z"></path>
</symbol>
<symbol id="icon-magnifier" viewBox="0 0 32 32">
<path d="M14.667 26.667c-6.667 0-12-5.333-12-12s5.333-12 12-12c6.667 0 12 5.333 12 12s-5.333 12-12 12zM14.667 5.333c-5.2 0-9.333 4.133-9.333 9.333s4.133 9.333 9.333 9.333c5.2 0 9.333-4.133 9.333-9.333s-4.133-9.333-9.333-9.333z"></path>
<path d="M28 29.333c-0.4 0-0.667-0.133-0.933-0.4l-5.733-5.733c-0.533-0.533-0.533-1.333 0-1.867s1.333-0.533 1.867 0l5.733 5.733c0.533 0.533 0.533 1.333 0 1.867-0.267 0.267-0.533 0.4-0.933 0.4z"></path>
</symbol>
<symbol id="icon-trash" viewBox="0 0 32 32">
<path d="M18.933 30.667h-5.867c-2.4 0-3.733 0-4.8-0.533s-1.867-1.333-2.267-2.267c-0.667-1.2-0.667-2.533-0.667-4.933v-13.6h-1.333c-0.8 0-1.333-0.533-1.333-1.333s0.533-1.333 1.333-1.333h5.333c0-1.467 0-2.4 0.4-3.2s0.933-1.333 1.733-1.733c0.933-0.4 1.867-0.4 3.467-0.4h2.133c1.6 0 2.533 0 3.467 0.4 0.8 0.4 1.333 0.933 1.733 1.733s0.4 1.733 0.4 3.2h5.333c0.8 0 1.333 0.533 1.333 1.333s-0.533 1.333-1.333 1.333h-1.333v13.6c0 2.4 0 3.733-0.533 4.8s-1.333 1.867-2.267 2.267c-1.2 0.667-2.533 0.667-4.933 0.667zM8 9.333v13.6c0 2 0 3.067 0.267 3.6s0.667 0.933 1.2 1.2c0.533 0.267 1.6 0.267 3.6 0.267h5.867c2 0 3.067 0 3.6-0.267s0.933-0.667 1.2-1.2c0.267-0.533 0.267-1.6 0.267-3.6v-13.6h-16zM12 6.667h8c0-1.067 0-1.733-0.133-2s-0.267-0.4-0.533-0.533c-0.4-0.133-1.067-0.133-2.267-0.133h-2.133c-1.2 0-1.867 0-2.267 0.133-0.133 0.133-0.4 0.4-0.533 0.533-0.133 0.267-0.133 0.933-0.133 2zM18.667 23.333c-0.8 0-1.333-0.533-1.333-1.333v-6.667c0-0.8 0.533-1.333 1.333-1.333s1.333 0.533 1.333 1.333v6.667c0 0.8-0.533 1.333-1.333 1.333zM13.333 23.333c-0.8 0-1.333-0.533-1.333-1.333v-6.667c0-0.8 0.533-1.333 1.333-1.333s1.333 0.533 1.333 1.333v6.667c0 0.8-0.533 1.333-1.333 1.333z"></path>
</symbol>
<symbol id="icon-pensil" viewBox="0 0 32 32">
<path d="M4.267 29.227c-0.427 0-0.64-0.213-1.067-0.427-0.213-0.213-0.427-0.64-0.427-1.067l0.427-3.2c0 0 0 0 0 0v0c0-0.853 0.213-1.493 0.427-1.92s0.427-0.853 0.64-1.28c0.213-0.427 0.64-0.853 1.28-1.493l15.787-15.787c1.92-1.92 5.12-1.92 7.040 0s1.92 5.12 0 7.040l-15.787 15.787c-0.64 0.64-1.067 1.067-1.493 1.28s-0.853 0.427-1.28 0.64c-0.64 0.213-1.067 0.213-1.92 0.427h-3.627c0 0 0 0 0 0zM4.48 24.533l1.28 0.213-0.213 1.493 1.493-0.213c0.853 0 1.28-0.213 1.493-0.213s0.427-0.213 0.64-0.427c0.213-0.213 0.427-0.427 1.067-1.067l15.787-15.787c0.853-0.853 0.853-2.133 0-2.987s-2.133-0.853-2.987 0l-15.573 16c-0.64 0.64-0.853 0.853-1.067 1.067s-0.213 0.427-0.427 0.64c0 0.213-0.213 0.64-0.213 1.493l-1.28-0.213z"></path>
</symbol>
<symbol id="icon-clock" viewBox="0 0 32 32">
<path d="M16 30.857c-8.229 0-14.857-6.629-14.857-14.857s6.629-14.857 14.857-14.857c8.229 0 14.857 6.629 14.857 14.857s-6.629 14.857-14.857 14.857zM16 4.114c-6.629 0-11.886 5.257-11.886 11.886s5.257 11.886 11.886 11.886c6.629 0 11.886-5.257 11.886-11.886s-5.257-11.886-11.886-11.886z"></path>
<path d="M21.257 20.114c-0.229 0-0.457 0-0.686-0.229l-5.257-2.514c-0.457-0.229-0.686-0.914-0.686-1.371v-8c0-0.914 0.686-1.371 1.371-1.371s1.371 0.686 1.371 1.371v7.086l4.571 2.286c0.686 0.457 1.143 1.371 0.686 2.057-0.229 0.457-0.686 0.686-1.371 0.686z"></path>
</symbol>
<symbol id="icon-upload" viewBox="0 0 32 32">
<path d="M25.15 28.45h-4.55c-0.15 0-0.25-0.1-0.25-0.25s0.1-0.25 0.25-0.25h4.55c0.75 0 1.45-0.3 2-0.8 0.55-0.55 0.8-1.25 0.8-2v-4.55c0-0.15 0.1-0.25 0.25-0.25s0.25 0.1 0.25 0.25v4.55c0 0.9-0.35 1.7-0.95 2.35-0.65 0.6-1.5 0.95-2.35 0.95zM11.45 28.45h-4.55c-0.9 0-1.7-0.35-2.35-0.95-0.6-0.6-0.95-1.45-0.95-2.35v-4.55c0-0.15 0.1-0.25 0.25-0.25s0.25 0.1 0.25 0.25v4.55c0 0.75 0.3 1.45 0.8 2 0.55 0.55 1.25 0.8 2 0.8h4.55c0.15 0 0.25 0.1 0.25 0.25s-0.15 0.25-0.25 0.25zM28.2 11.7c-0.15 0-0.25-0.1-0.25-0.25v-4.6c0-0.75-0.3-1.45-0.8-2s-1.25-0.8-1.95-0.8h-4.6c-0.15 0-0.25-0.1-0.25-0.25s0.1-0.25 0.25-0.25c0 0 0 0 0 0h4.6c0.9 0 1.7 0.35 2.35 0.95 0.6 0.6 0.95 1.45 0.95 2.35v4.6c-0.050 0.1-0.15 0.25-0.3 0.25zM3.8 11.7c-0.15 0-0.25-0.1-0.25-0.25v-4.6c0-0.9 0.35-1.7 0.95-2.35s1.45-0.95 2.35-0.95h4.6c0 0 0 0 0 0 0.15 0 0.25 0.1 0.25 0.25s-0.1 0.25-0.25 0.25h-4.6c-0.75 0-1.45 0.3-1.95 0.8-0.55 0.55-0.8 1.25-0.8 2v4.6c-0.050 0.1-0.15 0.25-0.3 0.25z"></path>
<path d="M16 18.75c0.6 0 1.15-0.2 1.6-0.65s0.65-0.95 0.65-1.6-0.2-1.15-0.65-1.6c-0.45-0.45-0.95-0.65-1.6-0.65s-1.15 0.2-1.6 0.65c-0.45 0.45-0.65 0.95-0.65 1.6s0.2 1.15 0.65 1.6c0.45 0.45 1 0.65 1.6 0.65zM12 20.5c-0.25 0-0.5-0.1-0.7-0.3s-0.3-0.45-0.3-0.7v-6c0-0.25 0.1-0.5 0.3-0.7s0.45-0.3 0.7-0.3h1.55l0.95-1h3l0.9 1h1.6c0.25 0 0.5 0.1 0.7 0.3s0.3 0.45 0.3 0.7v6c0 0.25-0.1 0.5-0.3 0.7s-0.45 0.3-0.7 0.3h-8z"></path>
</symbol>
<symbol id="icon-menu" viewBox="0 0 32 32">
<path d="M20 25.143h-16c-0.686 0-1.143-0.457-1.143-1.143s0.457-1.143 1.143-1.143h16c0.686 0 1.143 0.457 1.143 1.143s-0.457 1.143-1.143 1.143zM28 17.143h-24c-0.686 0-1.143-0.457-1.143-1.143s0.457-1.143 1.143-1.143h24c0.686 0 1.143 0.457 1.143 1.143s-0.457 1.143-1.143 1.143zM28 9.143h-24c-0.686 0-1.143-0.457-1.143-1.143s0.457-1.143 1.143-1.143h24c0.686 0 1.143 0.457 1.143 1.143s-0.457 1.143-1.143 1.143z"></path>
</symbol>
<symbol id="icon-correct" viewBox="0 0 32 32">
<path d="M0 16c0-8.838 7.162-16 16-16s16 7.162 16 16c0 8.837-7.163 16-16 16s-16-7.163-16-16zM23.237 13.238c0.681-0.681 0.681-1.794 0-2.475s-1.794-0.681-2.475 0l-6.763 6.762-2.763-2.762c-0.681-0.681-1.794-0.681-2.475 0s-0.681 1.794 0 2.475l4 4c0.681 0.681 1.794 0.681 2.475 0l8-8z"></path>
</symbol>
<symbol id="icon-error" viewBox="0 0 32 32">
<path d="M0 16c0-8.838 7.162-16 16-16s16 7.162 16 16c0 8.837-7.163 16-16 16s-16-7.163-16-16zM10.938 13.006l2.944 2.938-2.944 2.994c-0.581 0.588-0.581 1.538 0 2.069 0.588 0.637 1.537 0.637 2.069 0l2.938-2.888 2.994 2.888c0.588 0.637 1.538 0.637 2.069 0 0.637-0.531 0.637-1.481 0-2.069l-2.888-2.994 2.888-2.938c0.637-0.531 0.637-1.481 0-2.069-0.531-0.581-1.481-0.581-2.069 0l-2.994 2.944-2.938-2.944c-0.531-0.581-1.481-0.581-2.069 0-0.581 0.588-0.581 1.537 0 2.069z"></path>
</symbol>
<symbol id="icon-warning" viewBox="0 0 32 32">
<path d="M16 0c-8.838 0-16 7.162-16 16s7.162 16 16 16c8.837 0 16-7.163 16-16s-7.163-16-16-16zM14.5 9.5c0-0.825 0.675-1.5 1.5-1.5s1.5 0.672 1.5 1.5v8c0 0.828-0.672 1.5-1.5 1.5s-1.5-0.669-1.5-1.5v-8zM16 25c-1.085 0-1.965-0.88-1.965-1.965s0.879-1.965 1.965-1.965c1.086 0 1.965 0.88 1.965 1.965-0.002 1.084-0.877 1.965-1.965 1.965z"></path>
</symbol>
<symbol id="icon-facebook" viewBox="0 0 32 32">
<path d="M31.238 16.092c0-8.466-6.823-15.33-15.238-15.33s-15.238 6.864-15.238 15.33c0 7.651 5.571 13.994 12.857 15.145v-10.712h-3.87v-4.433h3.87v-3.377c0-3.841 2.276-5.965 5.756-5.965 1.667 0 3.412 0.3 3.412 0.3v3.773h-1.922c-1.892 0-2.484 1.181-2.484 2.395v2.874h4.226l-0.675 4.433h-3.55v10.713c7.286-1.15 12.857-7.493 12.857-15.146z"></path>
</symbol>
<symbol id="icon-instagram" viewBox="0 0 32 32">
<path d="M22.349 3.301c1.683 0.005 3.295 0.676 4.484 1.865s1.86 2.802 1.865 4.484v12.698c-0.005 1.683-0.676 3.295-1.865 4.484s-2.802 1.86-4.484 1.865h-12.698c-1.682-0.005-3.295-0.676-4.484-1.865s-1.86-2.802-1.865-4.484v-12.698c0.005-1.682 0.676-3.295 1.865-4.484s2.802-1.86 4.484-1.865h12.698zM22.349 0.762h-12.698c-4.889 0-8.889 4-8.889 8.889v12.698c0 4.889 4 8.889 8.889 8.889h12.698c4.889 0 8.889-4 8.889-8.889v-12.698c0-4.889-4-8.889-8.889-8.889z"></path>
<path d="M24.254 9.654c-0.377 0-0.745-0.112-1.058-0.321s-0.557-0.507-0.702-0.855-0.182-0.731-0.108-1.101c0.074-0.369 0.255-0.709 0.521-0.975s0.606-0.448 0.975-0.521c0.369-0.074 0.752-0.036 1.101 0.108s0.645 0.388 0.855 0.702c0.209 0.313 0.321 0.681 0.321 1.058 0.001 0.25-0.048 0.498-0.144 0.73s-0.236 0.442-0.413 0.619c-0.177 0.177-0.387 0.317-0.619 0.413s-0.479 0.144-0.73 0.144zM16 10.923c1.005 0 1.987 0.298 2.822 0.856s1.486 1.351 1.871 2.28c0.384 0.928 0.485 1.95 0.289 2.935s-0.68 1.89-1.39 2.601-1.615 1.194-2.601 1.39c-0.985 0.196-2.007 0.095-2.935-0.289s-1.722-1.036-2.28-1.871c-0.558-0.835-0.856-1.817-0.856-2.822 0.001-1.347 0.537-2.638 1.489-3.59s2.243-1.488 3.59-1.489zM16 8.383c-1.507 0-2.98 0.447-4.233 1.284s-2.229 2.027-2.806 3.419c-0.577 1.392-0.728 2.924-0.434 4.402s1.020 2.835 2.085 3.901c1.066 1.066 2.423 1.791 3.901 2.085s3.010 0.143 4.402-0.434c1.392-0.577 2.582-1.553 3.419-2.806s1.284-2.726 1.284-4.233c0-2.021-0.803-3.959-2.232-5.388s-3.367-2.232-5.387-2.232z"></path>
</symbol>
<symbol id="icon-twitter" viewBox="0 0 32 32">
<path d="M32 6.233c-1.2 0.522-2.47 0.865-3.77 1.020 1.366-0.8 2.393-2.070 2.889-3.573-1.291 0.755-2.702 1.285-4.171 1.567-0.619-0.648-1.363-1.164-2.187-1.516s-1.711-0.532-2.607-0.531c-3.628 0-6.564 2.893-6.564 6.46-0.003 0.496 0.054 0.991 0.169 1.473-2.602-0.122-5.149-0.786-7.479-1.948s-4.392-2.799-6.054-4.805c-0.583 0.983-0.891 2.104-0.893 3.247 0 2.24 1.169 4.22 2.933 5.38-1.046-0.025-2.070-0.302-2.985-0.807v0.080c0 3.133 2.267 5.74 5.267 6.333-0.564 0.15-1.146 0.227-1.729 0.227-0.414 0.001-0.828-0.040-1.234-0.12 0.834 2.567 3.261 4.433 6.137 4.487-2.336 1.801-5.205 2.774-8.155 2.767-0.524-0.001-1.047-0.032-1.567-0.093 3.001 1.916 6.489 2.93 10.049 2.92 12.091 0 18.696-9.847 18.696-18.387 0-0.28-0.007-0.56-0.021-0.833 1.282-0.912 2.391-2.045 3.275-3.347z"></path>
</symbol>
<symbol id="icon-youtube" viewBox="0 0 32 32">
<path d="M31.794 9.299c0-2.812-2.069-5.075-4.626-5.075-3.463-0.162-6.995-0.224-10.604-0.224h-1.125c-3.6 0-7.138 0.063-10.601 0.225-2.55 0-4.619 2.275-4.619 5.087-0.156 2.224-0.223 4.449-0.219 6.674-0.006 2.225 0.065 4.452 0.213 6.681 0 2.812 2.069 5.094 4.619 5.094 3.638 0.169 7.37 0.244 11.164 0.237 3.8 0.012 7.522-0.067 11.164-0.237 2.557 0 4.626-2.281 4.626-5.094 0.15-2.231 0.219-4.456 0.213-6.687 0.014-2.225-0.054-4.452-0.204-6.681zM12.94 22.118v-12.281l9.064 6.137-9.064 6.144z"></path>
</symbol>
<symbol id="icon-dialog" viewBox="0 0 32 32">
<path d="M0.012 7.172c0-1.293 0.038-3.621 0.435-4.377 0.677-1.287 2.477-1.209 3.929-1.141l24.126 1.13c0.146 0.007 0.291 0.027 0.433 0.060 1.438 0.332 2.542 1.487 2.809 2.939l0.029 0.157c0.151 0.819 0.227 1.647 0.227 2.48v13.569c0 1.061-0.366 2.093-1.037 2.915-0.601 0.737-1.501 1.165-2.453 1.165h-5.501c-0.134 0-0.292 0.023-0.46 0.061-1.009 0.227-1.799 0.97-2.414 1.801-0.137 0.184-0.287 0.358-0.441 0.528-0.712 0.786-1.662 1.987-3.738 1.987-0.69 0-1.327-0.196-1.845-0.442-0.822-0.391-1.406-1.121-1.944-1.854-0.939-1.28-2.508-1.922-4.093-1.829-1.687 0.1-3.681 0.093-5.132-0.252-2.344-0.557-3.046-3.598-2.931-4.973v-13.926z"></path>
</symbol>
<symbol id="icon-rectangle" viewBox="0 0 32 32">
<path d="M4.834 7.524l12.89-6.011c2.67-1.245 5.843-0.090 7.088 2.58l6.011 12.89c1.245 2.67 0.090 5.843-2.58 7.088l-12.89 6.011c-2.67 1.245-5.843 0.090-7.088-2.58l-6.011-12.89c-1.245-2.67-0.090-5.843 2.58-7.088z"></path>
</symbol>
</defs>
</svg>
